<svg xmlns="http://www.w3.org/2000/svg" width="20" height="20" viewBox="0 0 20 20" fill="none">
  <path d="M11.9411 3.67095H6.4411V1.35692C6.44105 1.29161 6.42308 1.22761 6.38916 1.1718C6.35524 1.11599 6.30667 1.07057 6.24872 1.04046C6.19076 1.01034 6.12565 0.996704 6.06049 1.00103C5.99532 1.00535 5.93256 1.02743 5.87909 1.06493L1.1521 4.37896C1.10506 4.41176 1.06663 4.45544 1.0401 4.50628C1.01357 4.55712 0.999756 4.61361 0.999756 4.67095C0.999756 4.72829 1.01357 4.78478 1.0401 4.83562C1.06663 4.88646 1.10506 4.93014 1.1521 4.96294L5.87909 8.27697C5.93256 8.31447 5.99532 8.33655 6.06049 8.34087C6.12565 8.34519 6.19076 8.33155 6.24872 8.30144C6.30667 8.27133 6.35524 8.2259 6.38916 8.17009C6.42308 8.11429 6.44105 8.05029 6.4411 7.98497V5.67095H11.9411C13.3998 5.67095 14.7987 6.2504 15.8302 7.28185C16.8617 8.3133 17.4411 9.71226 17.4411 11.1709C17.4411 12.6296 16.8617 14.0286 15.8302 15.06C14.7987 16.0915 13.3998 16.6709 11.9411 16.6709H7.20813C6.94291 16.6709 6.68851 16.7763 6.50098 16.9639C6.31344 17.1514 6.20813 17.4057 6.20813 17.6709C6.20813 17.9362 6.31344 18.1905 6.50098 18.378C6.68851 18.5656 6.94291 18.6709 7.20813 18.6709H11.9411C13.9302 18.6709 15.8379 17.8808 17.2444 16.4742C18.6509 15.0677 19.4411 13.1601 19.4411 11.1709C19.4411 9.18183 18.6509 7.27419 17.2444 5.86767C15.8379 4.46114 13.9302 3.67095 11.9411 3.67095Z" fill="#F8FAFB"/>
</svg>