<svg xmlns="http://www.w3.org/2000/svg" width="20" height="20" viewBox="0 0 20 20" fill="none">
  <g clip-path="url(#clip0_24_14)">
    <path d="M8.0589 3.67095H13.5589V1.35692C13.5589 1.29161 13.5769 1.22761 13.6108 1.1718C13.6448 1.11599 13.6933 1.07057 13.7513 1.04046C13.8092 1.01034 13.8743 0.996704 13.9395 1.00103C14.0047 1.00535 14.0674 1.02743 14.1209 1.06493L18.8479 4.37896C18.8949 4.41176 18.9334 4.45544 18.9599 4.50628C18.9864 4.55712 19.0002 4.61361 19.0002 4.67095C19.0002 4.72829 18.9864 4.78478 18.9599 4.83562C18.9334 4.88646 18.8949 4.93014 18.8479 4.96294L14.1209 8.27697C14.0674 8.31447 14.0047 8.33655 13.9395 8.34087C13.8743 8.34519 13.8092 8.33155 13.7513 8.30144C13.6933 8.27133 13.6448 8.2259 13.6108 8.17009C13.5769 8.11429 13.5589 8.05029 13.5589 7.98497V5.67095H8.0589C6.60021 5.67095 5.20125 6.2504 4.1698 7.28185C3.13835 8.3133 2.5589 9.71226 2.5589 11.1709C2.5589 12.6296 3.13835 14.0286 4.1698 15.06C5.20125 16.0915 6.60021 16.6709 8.0589 16.6709H12.7919C13.0571 16.6709 13.3115 16.7763 13.499 16.9639C13.6866 17.1514 13.7919 17.4057 13.7919 17.6709C13.7919 17.9362 13.6866 18.1905 13.499 18.378C13.3115 18.5656 13.0571 18.6709 12.7919 18.6709H8.0589C6.06978 18.6709 4.16214 17.8808 2.75562 16.4742C1.34909 15.0677 0.558899 13.1601 0.558899 11.1709C0.558899 9.18183 1.34909 7.27419 2.75562 5.86767C4.16214 4.46114 6.06978 3.67095 8.0589 3.67095Z" fill="#F8FAFB"/>
  </g>
  <defs>
    <clipPath id="clip0_24_14">
      <rect width="20" height="20" fill="white" transform="matrix(-1 0 0 1 20 0)"/>
    </clipPath>
  </defs>
</svg>