<svg xmlns="http://www.w3.org/2000/svg" width="20" height="19" viewBox="0 0 20 19" fill="none">
  <g clip-path="url(#clip0_24_66)">
    <path d="M14.411 14.658C15.441 14.3824 16.3864 13.8552 17.1623 13.1238C17.9383 12.3925 18.5203 11.4798 18.8563 10.4679C19.1923 9.45592 19.2716 8.37636 19.0871 7.32617C18.9027 6.27598 18.4602 5.28805 17.7996 4.45114C17.1389 3.61423 16.2806 2.95456 15.3019 2.53137C14.3232 2.10818 13.2548 1.93475 12.1925 2.02663C11.1302 2.11852 10.1073 2.47286 9.21583 3.05782C8.32434 3.64277 7.59213 4.44002 7.08496 5.37795" fill="#151B29"/>
    <path d="M6.563 14.4299H2.063C1.99063 14.4322 1.91854 14.42 1.85091 14.3942C1.78328 14.3683 1.72147 14.3292 1.66908 14.2793C1.61669 14.2293 1.57476 14.1694 1.54573 14.1031C1.5167 14.0367 1.50116 13.9653 1.5 13.8929V5.83791C1.50117 5.76595 1.51655 5.69493 1.54527 5.62894C1.57398 5.56294 1.61546 5.50328 1.66732 5.45337C1.71918 5.40346 1.78039 5.3643 1.84744 5.33814C1.91449 5.31197 1.98605 5.29932 2.058 5.30091H10.424C10.496 5.29932 10.5675 5.31197 10.6346 5.33814C10.7016 5.3643 10.7628 5.40346 10.8147 5.45337C10.8665 5.50328 10.908 5.56294 10.9367 5.62894C10.9654 5.69493 10.9808 5.76595 10.982 5.83791V8.80891" fill="#151B29"/>
    <path d="M9.583 14.4299H2.058C1.98605 14.4315 1.91449 14.4189 1.84744 14.3927C1.78039 14.3665 1.71918 14.3274 1.66732 14.2775C1.61546 14.2276 1.57398 14.1679 1.54527 14.1019C1.51655 14.0359 1.50117 13.9649 1.5 13.8929V5.83791C1.50117 5.76595 1.51655 5.69493 1.54527 5.62894C1.57398 5.56294 1.61546 5.50328 1.66732 5.45337C1.71918 5.40346 1.78039 5.3643 1.84744 5.33814C1.91449 5.31197 1.98605 5.29932 2.058 5.30091H10.424C10.496 5.29932 10.5675 5.31197 10.6346 5.33814C10.7016 5.3643 10.7628 5.40346 10.8147 5.45337C10.8665 5.50328 10.908 5.56294 10.9367 5.62894C10.9654 5.69493 10.9808 5.76595 10.982 5.83791V12.2209" fill="#151B29"/>
    <path d="M12.9759 8.2279L7.74289 17.5489C7.67803 17.6549 7.64155 17.7758 7.63697 17.9C7.63238 18.0242 7.65984 18.1475 7.7167 18.258C7.77356 18.3685 7.8579 18.4625 7.96162 18.531C8.06534 18.5994 8.18493 18.64 8.30889 18.6489H18.7759C18.8998 18.64 19.0194 18.5994 19.1232 18.531C19.2269 18.4625 19.3112 18.3685 19.3681 18.258C19.4249 18.1475 19.4524 18.0242 19.4478 17.9C19.4432 17.7758 19.4067 17.6549 19.3419 17.5489L14.1089 8.2199C14.0549 8.11585 13.9731 8.02876 13.8727 7.96825C13.7723 7.90773 13.6572 7.87614 13.5399 7.87697C13.4227 7.8778 13.308 7.91101 13.2085 7.97294C13.1089 8.03487 13.0284 8.1231 12.9759 8.2279Z" fill="#151B29"/>
    <path d="M13.411 12.658C14.441 12.3824 15.3864 11.8552 16.1623 11.1238C16.9383 10.3925 17.5203 9.47983 17.8563 8.46788C18.1923 7.45592 18.2716 6.37636 18.0871 5.32617C17.9027 4.27598 17.4602 3.28805 16.7996 2.45114C16.1389 1.61423 15.2806 0.954557 14.3019 0.531371C13.3232 0.108185 12.2548 -0.0652543 11.1925 0.0266343C10.1302 0.118523 9.10732 0.472861 8.21583 1.05782C7.32434 1.64277 6.59213 2.44002 6.08496 3.37795" fill="#DAE4EA"/>
    <path d="M5.563 12.4299H1.063C0.990632 12.4322 0.918536 12.42 0.850909 12.3942C0.783282 12.3683 0.721473 12.3292 0.669081 12.2793C0.616688 12.2293 0.574758 12.1694 0.545731 12.1031C0.516703 12.0367 0.501158 11.9653 0.5 11.8929V3.83791C0.501169 3.76595 0.516553 3.69493 0.545269 3.62894C0.573984 3.56294 0.615464 3.50328 0.667322 3.45337C0.71918 3.40346 0.780393 3.3643 0.84744 3.33814C0.914488 3.31197 0.986046 3.29932 1.058 3.30091H9.424C9.49595 3.29932 9.56751 3.31197 9.63456 3.33814C9.70161 3.3643 9.76282 3.40346 9.81468 3.45337C9.86654 3.50328 9.90802 3.56294 9.93673 3.62894C9.96545 3.69493 9.98083 3.76595 9.982 3.83791V6.80891" fill="#DAE4EA"/>
    <path d="M8.583 12.4299H1.058C0.986046 12.4315 0.914488 12.4189 0.84744 12.3927C0.780393 12.3665 0.71918 12.3274 0.667322 12.2775C0.615464 12.2276 0.573984 12.1679 0.545269 12.1019C0.516553 12.0359 0.501169 11.9649 0.5 11.8929V3.83791C0.501169 3.76595 0.516553 3.69493 0.545269 3.62894C0.573984 3.56294 0.615464 3.50328 0.667322 3.45337C0.71918 3.40346 0.780393 3.3643 0.84744 3.33814C0.914488 3.31197 0.986046 3.29932 1.058 3.30091H9.424C9.49595 3.29932 9.56751 3.31197 9.63456 3.33814C9.70161 3.3643 9.76282 3.40346 9.81468 3.45337C9.86654 3.50328 9.90802 3.56294 9.93673 3.62894C9.96545 3.69493 9.98083 3.76595 9.982 3.83791V10.2209" fill="#314152"/>
    <path d="M8.583 12.4299H1.058C0.986046 12.4315 0.914488 12.4189 0.84744 12.3927C0.780393 12.3665 0.71918 12.3274 0.667322 12.2775C0.615464 12.2276 0.573984 12.1679 0.545269 12.1019C0.516553 12.0359 0.501169 11.9649 0.5 11.8929V3.83791C0.501169 3.76595 0.516553 3.69493 0.545269 3.62894C0.573984 3.56294 0.615464 3.50328 0.667322 3.45337C0.71918 3.40346 0.780393 3.3643 0.84744 3.33814C0.914488 3.31197 0.986046 3.29932 1.058 3.30091H9.424C9.49595 3.29932 9.56751 3.31197 9.63456 3.33814C9.70161 3.3643 9.76282 3.40346 9.81468 3.45337C9.86654 3.50328 9.90802 3.56294 9.93673 3.62894C9.96545 3.69493 9.98083 3.76595 9.982 3.83791V10.2209" stroke="#DAE4EA"/>
    <path d="M11.9759 6.2279L6.74289 15.5489C6.67803 15.6549 6.64155 15.7758 6.63697 15.9C6.63238 16.0242 6.65984 16.1475 6.7167 16.258C6.77356 16.3685 6.8579 16.4625 6.96162 16.531C7.06534 16.5994 7.18493 16.64 7.30889 16.6489H17.7759C17.8998 16.64 18.0194 16.5994 18.1232 16.531C18.2269 16.4625 18.3112 16.3685 18.3681 16.258C18.4249 16.1475 18.4524 16.0242 18.4478 15.9C18.4432 15.7758 18.4067 15.6549 18.3419 15.5489L13.1089 6.2199C13.0549 6.11585 12.9731 6.02876 12.8727 5.96825C12.7723 5.90773 12.6572 5.87614 12.5399 5.87697C12.4227 5.8778 12.308 5.91101 12.2085 5.97294C12.1089 6.03487 12.0284 6.1231 11.9759 6.2279Z" fill="#DAE4EA" stroke="#314152" stroke-miterlimit="10"/>
  </g>
  <defs>
    <clipPath id="clip0_24_66">
      <rect width="19.441" height="18.647" fill="white"/>
    </clipPath>
  </defs>
</svg>