<svg xmlns="http://www.w3.org/2000/svg" width="20" height="20" viewBox="0 0 20 20" fill="none">
  <g clip-path="url(#clip0_24_75)">
    <path d="M16 2H6C3.79086 2 2 3.79086 2 6V16C2 18.2091 3.79086 20 6 20H16C18.2091 20 20 18.2091 20 16V6C20 3.79086 18.2091 2 16 2Z" fill="#151B29"/>
    <path d="M14 17.5H4C2.07 17.5 0.5 15.93 0.5 14V4C0.5 2.07 2.07 0.5 4 0.5H14C15.93 0.5 17.5 2.07 17.5 4V14C17.5 15.93 15.93 17.5 14 17.5Z" fill="#2B3140"/>
    <path d="M4 1C2.346 1 1 2.346 1 4V14C1 15.654 2.346 17 4 17H14C15.654 17 17 15.654 17 14V4C17 2.346 15.654 1 14 1H4ZM4 0H14C15.0609 0 16.0783 0.421427 16.8284 1.17157C17.5786 1.92172 18 2.93913 18 4V14C18 15.0609 17.5786 16.0783 16.8284 16.8284C16.0783 17.5786 15.0609 18 14 18H4C2.93913 18 1.92172 17.5786 1.17157 16.8284C0.421427 16.0783 0 15.0609 0 14V4C0 2.93913 0.421427 1.92172 1.17157 1.17157C1.92172 0.421427 2.93913 0 4 0Z" fill="#DAE4EA"/>
    <path d="M0.550049 14.15C0.550049 14.184 3.19005 11.55 3.99305 10.718L4.00205 10.709C4.04847 10.6634 4.10346 10.6274 4.16386 10.6032C4.22425 10.5789 4.28885 10.5668 4.35392 10.5677C4.419 10.5685 4.48327 10.5822 4.54302 10.608C4.60277 10.6338 4.65682 10.6712 4.70205 10.718L7.51005 13.529L13.275 7.755L13.284 7.746C13.3299 7.69939 13.3847 7.66254 13.4452 7.63766C13.5057 7.61278 13.5706 7.60039 13.636 7.60123C13.7014 7.60207 13.7659 7.61612 13.8257 7.64255C13.8855 7.66898 13.9394 7.70723 13.984 7.755L17.453 11.187V14.387C17.3722 15.2433 16.9688 16.0369 16.3247 16.6069C15.6806 17.177 14.8439 17.4809 13.984 17.457C10.765 17.495 3.54005 17.457 3.54005 17.457C3.54005 17.457 0.606049 16.855 0.550049 14.15ZM6.00005 4C6.39561 4 6.78229 4.1173 7.11119 4.33706C7.44009 4.55682 7.69643 4.86918 7.84781 5.23463C7.99918 5.60009 8.03879 6.00222 7.96162 6.39018C7.88445 6.77814 7.69397 7.13451 7.41426 7.41421C7.13456 7.69392 6.77819 7.8844 6.39023 7.96157C6.00227 8.03874 5.60013 7.99913 5.23468 7.84776C4.86923 7.69638 4.55687 7.44004 4.33711 7.11114C4.11735 6.78224 4.00005 6.39556 4.00005 6C4.00005 5.46957 4.21076 4.96086 4.58583 4.58579C4.96091 4.21071 5.46962 4 6.00005 4Z" fill="#DAE4EA"/>
  </g>
  <defs>
    <clipPath id="clip0_24_75">
      <rect width="20" height="20" fill="white"/>
    </clipPath>
  </defs>
</svg>