<svg xmlns="http://www.w3.org/2000/svg" width="27" height="29" viewBox="0 0 27 29" fill="none">
  <path d="M12 17.7881H3C2.44772 17.7881 2 18.2358 2 18.7881V27.7881C2 28.3404 2.44772 28.7881 3 28.7881H12C12.5523 28.7881 13 28.3404 13 27.7881V18.7881C13 18.2358 12.5523 17.7881 12 17.7881Z" fill="#151B29"/>
  <path d="M12.3015 2.14556L3.66771 5.45975C3.15211 5.65767 2.89458 6.23609 3.0925 6.7517L6.40669 15.3854C6.60461 15.901 7.18303 16.1586 7.69863 15.9607L16.3324 12.6465C16.848 12.4486 17.1055 11.8701 16.9076 11.3545L13.5934 2.72077C13.3955 2.20517 12.8171 1.94764 12.3015 2.14556Z" fill="#151B29"/>
  <path d="M25.6918 16.0574L16.7589 13.6638C16.2254 13.5209 15.6771 13.8375 15.5341 14.371L13.1406 23.3038C12.9976 23.8373 13.3142 24.3856 13.8477 24.5286L22.7806 26.9221C23.314 27.0651 23.8624 26.7485 24.0053 26.215L26.3989 17.2822C26.5418 16.7487 26.2252 16.2003 25.6918 16.0574Z" fill="#151B29"/>
  <path d="M10 26.2881H1C0.867392 26.2881 0.740214 26.2354 0.646446 26.1416C0.552678 26.0479 0.5 25.9207 0.5 25.7881V16.7881C0.5 16.6555 0.552678 16.5283 0.646446 16.4345C0.740214 16.3408 0.867392 16.2881 1 16.2881H10C10.1326 16.2881 10.2598 16.3408 10.3536 16.4345C10.4473 16.5283 10.5 16.6555 10.5 16.7881V25.7881C10.5 25.9207 10.4473 26.0479 10.3536 26.1416C10.2598 26.2354 10.1326 26.2881 10 26.2881Z" fill="#3F5264"/>
  <path d="M1 16.7881V25.7881H10V16.7881H1ZM1 15.7881H10C10.2652 15.7881 10.5196 15.8934 10.7071 16.081C10.8946 16.2685 11 16.5229 11 16.7881V25.7881C11 26.0533 10.8946 26.3077 10.7071 26.4952C10.5196 26.6827 10.2652 26.7881 10 26.7881H1C0.734784 26.7881 0.48043 26.6827 0.292893 26.4952C0.105357 26.3077 0 26.0533 0 25.7881V16.7881C0 16.5229 0.105357 16.2685 0.292893 16.081C0.48043 15.8934 0.734784 15.7881 1 15.7881Z" fill="#DAE4EA"/>
  <path d="M10.1643 0.358695L1.5305 3.67288C1.0149 3.8708 0.757371 4.44923 0.955292 4.96483L4.26948 13.5986C4.4674 14.1142 5.04582 14.3717 5.56143 14.1738L14.1952 10.8596C14.7108 10.6617 14.9683 10.0833 14.7704 9.56766L11.4562 0.933908C11.2583 0.418305 10.6799 0.160774 10.1643 0.358695Z" fill="#3F5264"/>
  <path d="M10.3435 0.825477L1.70971 4.13966C1.45191 4.23862 1.32314 4.52784 1.4221 4.78564L4.73629 13.4194C4.83525 13.6772 5.12446 13.806 5.38226 13.707L14.016 10.3928C14.2738 10.2938 14.4026 10.0046 14.3036 9.74683L10.9894 1.11308C10.8905 0.855282 10.6013 0.726516 10.3435 0.825477Z" stroke="#DAE4EA"/>
  <path d="M24.7538 14.1824L15.8209 11.7888C15.2874 11.6459 14.7391 11.9625 14.5962 12.496L12.2026 21.4288C12.0597 21.9623 12.3762 22.5106 12.9097 22.6536L21.8426 25.0471C22.3761 25.1901 22.9244 24.8735 23.0673 24.34L25.4609 15.4072C25.6038 14.8737 25.2873 14.3253 24.7538 14.1824Z" fill="#DAE4EA"/>
  <path d="M3.28589 18.4152H5.20889C5.862 18.3719 6.51547 18.494 7.10889 18.7702C7.30322 18.8825 7.46234 19.0469 7.56835 19.2447C7.67435 19.4426 7.72302 19.6661 7.70889 19.8902C7.72156 20.1964 7.62989 20.4978 7.44889 20.7452C7.2806 20.9642 7.03262 21.108 6.75889 21.1452V21.1852C7.08717 21.232 7.38754 21.3957 7.60489 21.6462C7.78958 21.9087 7.88111 22.2256 7.86489 22.5462C7.87443 22.7879 7.82334 23.0282 7.71627 23.2451C7.6092 23.462 7.44956 23.6487 7.25189 23.7882C6.76128 24.1089 6.18117 24.2648 5.59589 24.2332H3.28589V18.4152ZM4.59489 20.7152H5.35489C5.6209 20.7349 5.88722 20.6813 6.12489 20.5602C6.20624 20.5032 6.27116 20.4257 6.31311 20.3357C6.35506 20.2456 6.37258 20.1461 6.36389 20.0472C6.37078 19.9508 6.34996 19.8546 6.30389 19.7697C6.25782 19.6848 6.18842 19.6149 6.10389 19.5682C5.84583 19.4546 5.56423 19.4049 5.28289 19.4232H4.59489V20.7152ZM4.59489 21.6942V23.2152H5.44789C5.72851 23.2369 6.00875 23.1686 6.24789 23.0202C6.33643 22.9487 6.4062 22.8567 6.45115 22.7521C6.49611 22.6476 6.5149 22.5336 6.50589 22.4202C6.50589 21.9375 6.13922 21.6962 5.40589 21.6962L4.59489 21.6942ZM10.5699 9.70817L9.62489 8.54317L7.43489 9.38317L7.50989 10.8832L6.13689 11.4102L6.09989 4.97618L7.65689 4.37817L11.9429 9.18117L10.5699 9.70817ZM8.93789 7.66517C8.07122 6.61184 7.58256 6.01584 7.47189 5.87717C7.36122 5.7385 7.27722 5.62818 7.21989 5.54618C7.25456 5.90751 7.30622 6.81584 7.37489 8.27118L8.93789 7.66517Z" fill="#DAE4EA"/>
  <path d="M20.211 16.1142C19.952 16.0243 19.6756 15.9957 19.4037 16.0308C19.1318 16.0658 18.8717 16.1635 18.644 16.3162C18.1498 16.6984 17.8049 17.2415 17.669 17.8512C17.241 19.3445 17.6563 20.2712 18.915 20.6312C19.576 20.7976 20.2581 20.865 20.939 20.8312L20.598 22.0212C19.8665 22.0675 19.1327 21.9829 18.431 21.7712C17.9635 21.6721 17.5213 21.4783 17.1316 21.2017C16.7419 20.9252 16.4129 20.5717 16.165 20.1632C15.9583 19.7301 15.8399 19.2602 15.8165 18.7809C15.7932 18.3015 15.8654 17.8224 16.029 17.3712C16.1972 16.7321 16.5244 16.1459 16.98 15.6672C17.4056 15.2296 17.9542 14.9317 18.553 14.8132C19.2185 14.6898 19.9041 14.731 20.55 14.9332C21.3067 15.1563 22.01 15.5313 22.617 16.0352L21.772 17.0412C21.5253 16.8385 21.272 16.6539 21.012 16.4872C20.7654 16.3231 20.4953 16.1973 20.211 16.1142Z" fill="#151B29"/>
</svg>